HIERARCHY
ROOT Hips
{
	OFFSET -3.958830 18.904000 13.208200
	CHANNELS 6 Xposition Yposition Zposition Zrotation Yrotation Xrotation 
	JOINT LHipJoint
	{
		OFFSET 0.000000 0.000000 0.000000
		CHANNELS 3 Zrotation Yrotation Xrotation
		JOINT LeftUpLeg
		{
			OFFSET 1.800000 -1.400000 0.085000
			CHANNELS 3 Zrotation Yrotation Xrotation
			JOINT LeftLeg
			{
				OFFSET 2.215000 -6.000000 0.000000
				CHANNELS 3 Zrotation Yrotation Xrotation
				JOINT LeftFoot
				{
					OFFSET 2.500000 -6.900000 0.000000
					CHANNELS 3 Zrotation Yrotation Xrotation
					JOINT LeftToeBase
					{
						OFFSET 0.200000 -0.500000 1.950000
						CHANNELS 3 Zrotation Yrotation Xrotation
						End Site
						{
							OFFSET 0.000000 0.000000 0.000000
						}
					}
				}
			}
		}
	}
	JOINT RHipJoint
	{
		OFFSET 0.000000 0.000000 0.000000
		CHANNELS 3 Zrotation Yrotation Xrotation
		JOINT RightUpLeg
		{
			OFFSET -1.800000 -1.400000 0.085000
			CHANNELS 3 Zrotation Yrotation Xrotation
			JOINT RightLeg
			{
				OFFSET -2.215000 -6.000000 0.000000
				CHANNELS 3 Zrotation Yrotation Xrotation
				JOINT RightFoot
				{
					OFFSET -2.500000 -6.900000 0.000000
					CHANNELS 3 Zrotation Yrotation Xrotation
					JOINT RightToeBase
					{
						OFFSET -0.200000 -0.500000 1.950000
						CHANNELS 3 Zrotation Yrotation Xrotation
						End Site
						{
							OFFSET 0.000000 0.000000 0.000000
						}
					}
				}
			}
		}
	}
	JOINT LowerBack
	{
		OFFSET 0.000000 0.000000 0.000000
		CHANNELS 3 Zrotation Yrotation Xrotation
		JOINT Spine
		{
			OFFSET -0.087000 1.940000 -0.288900
			CHANNELS 3 Zrotation Yrotation Xrotation
			JOINT Spine1
			{
				OFFSET 0.000000 1.950000 0.060000
				CHANNELS 3 Zrotation Yrotation Xrotation
				JOINT Neck
				{
					OFFSET 0.000000 0.000000 0.000000
					CHANNELS 3 Zrotation Yrotation Xrotation
					JOINT Neck1
					{
						OFFSET 0.000000 1.600000 0.340000
						CHANNELS 3 Zrotation Yrotation Xrotation
						JOINT Head
						{
							OFFSET 0.000000 1.667000 -0.240000
							CHANNELS 3 Zrotation Yrotation Xrotation
							End Site
							{
								OFFSET 0.000000 0.000000 0.000000
							}
						}
					}
				}
				JOINT LeftShoulder
				{
					OFFSET 0.000000 0.000000 0.000000
					CHANNELS 3 Zrotation Yrotation Xrotation
					JOINT LeftArm
					{
						OFFSET 2.700000 1.550000 -0.730000
						CHANNELS 3 Zrotation Yrotation Xrotation
						JOINT LeftForeArm
						{
							OFFSET 5.450000 0.000000 0.000000
							CHANNELS 3 Zrotation Yrotation Xrotation
							JOINT LeftHand
							{
								OFFSET 3.450000 0.000000 0.000000
								CHANNELS 3 Zrotation Yrotation Xrotation
								JOINT LeftHandIndex1
								{
									OFFSET 0.750000 0.000000 0.000000
									CHANNELS 3 Zrotation Yrotation Xrotation
									End Site
									{
										OFFSET 0.000000 0.000000 0.000000
									}
								}
							}
						}
					}
				}
				JOINT RightShoulder
				{
					OFFSET 0.000000 0.000000 0.000000
					CHANNELS 3 Zrotation Yrotation Xrotation
					JOINT RightArm
					{
						OFFSET -2.700000 1.550000 -0.730000
						CHANNELS 3 Zrotation Yrotation Xrotation
						JOINT RightForeArm
						{
							OFFSET -5.450000 0.000000 0.000000
							CHANNELS 3 Zrotation Yrotation Xrotation
							JOINT RightHand
							{
								OFFSET -3.450000 0.000000 0.000000
								CHANNELS 3 Zrotation Yrotation Xrotation
								JOINT RightHandIndex1
								{
									OFFSET -0.750000 0.000000 0.000000
									CHANNELS 3 Zrotation Yrotation Xrotation
									End Site
									{
										OFFSET 0.000000 0.000000 0.000000
									}
								}
							}
						}
					}
				}
			}
		}
	}
}
MOTION
Frames: 7
Frame Time: 0.016667
-21.191270 16.651620 9.829910 2.596247 40.048533 14.178132 -14.953088 11.348378 3.457442 5.953017 -4.134301 -33.375500 5.348894 0.618308 0.054967 -1.510678 2.028734 3.804660 2.346560 2.147960 1.370320 18.733976 -11.103567 2.521952 -0.606472 2.651733 -15.311817 9.799261 -5.732889 19.925591 -0.827211 -4.529080 2.305866 1.598880 0.192890 0.660890 -5.064907 1.307407 -6.828456 12.068005 3.981030 1.149356 -2.717629 4.033191 -2.580206 -4.503787 -6.541244 -0.060936 -9.691886 14.882579 10.697847 10.398860 2.349370 -17.484200 -9.594744 10.823860 -2.116601 -13.132177 -3.243343 2.553737 12.291658 -38.340661 -2.803815 -3.222912 4.421041 0.505600 0.068590 0.285450 0.912160 17.276192 -3.103009 -4.283109 5.815517 16.263977 1.547773 -11.955744 35.146660 -2.752177 1.798991 -2.661559 0.107290 0.148130 -1.000860 0.068660 
-21.174690 16.646490 9.817900 3.011144 41.052042 14.291241 -14.963366 11.404841 3.423209 6.178945 -4.031711 -33.359092 6.062548 0.574831 0.537741 -1.501401 1.993874 3.786220 2.390240 2.212220 1.400250 18.720570 -11.115133 2.501342 -0.886243 2.501632 -15.002353 9.598860 -5.635969 19.532377 -0.835681 -4.500685 2.307303 1.632780 0.146310 0.671720 -5.056271 1.227960 -6.794330 11.652534 4.084647 1.112982 -2.336893 4.075963 -2.750120 -4.806828 -6.623583 0.186137 -9.915072 15.358116 10.705311 10.412070 2.800170 -17.809830 -9.247974 11.590410 -2.233308 -12.509803 -2.854784 2.512586 10.413231 -36.274151 -2.145880 -3.179942 4.473478 0.508120 0.054110 0.325400 0.920330 17.487491 -3.766130 -4.363578 5.612369 14.985279 1.357246 -12.167962 35.914322 -2.818104 1.799807 -2.706001 0.132740 0.116590 -1.042550 0.073100 
-21.150350 16.652640 9.799540 2.578821 42.246192 13.612182 -14.966327 11.439033 3.368017 6.832253 -3.788739 -33.192228 6.401280 0.593322 0.870118 -1.438098 1.999086 3.760656 2.377590 2.206190 1.396380 18.714835 -11.091170 2.540145 -0.880126 2.586610 -14.650379 10.896822 -6.178974 20.164714 -0.915563 -4.664213 2.231758 1.596000 0.106000 0.710080 -5.102774 1.162382 -6.834576 12.521625 3.857281 1.591133 -2.836898 3.983186 -2.937148 -4.648621 -6.824381 0.138194 -10.371167 16.049483 10.943199 10.624140 3.551050 -18.536280 -8.974113 12.130105 -2.267230 -12.092942 -2.090137 2.300256 10.085517 -35.648920 -2.021491 -3.161929 4.506242 0.524610 0.025870 0.385620 0.915430 16.814024 -4.421544 -4.186789 4.958138 13.171386 1.188704 -10.102312 36.864051 -2.156860 1.814609 -2.721659 0.176870 0.081890 -1.041300 0.081060 
-21.124850 16.655150 9.784680 2.014054 43.279553 12.958870 -14.960152 11.445576 3.327004 7.564894 -3.545021 -32.827222 6.409334 0.630072 0.728272 -1.391460 2.052226 3.729864 2.334890 2.156020 1.369720 18.718395 -11.088239 2.572968 -0.619611 2.630732 -14.323728 11.549202 -6.485504 20.427421 -0.969696 -4.751414 2.196293 1.540220 0.093330 0.757680 -5.177511 1.173286 -6.875303 13.557728 3.602783 1.915500 -3.539617 3.835771 -3.140660 -4.430290 -6.820607 0.058030 -10.492842 17.013631 11.235229 10.659990 4.622280 -18.971680 -8.833573 12.420288 -2.159300 -11.531416 -0.886921 2.109137 10.755311 -35.471172 -2.178649 -3.191441 4.523881 0.545130 0.022790 0.423750 0.905530 16.183395 -4.984942 -4.160450 6.270554 13.103940 0.924863 -11.934576 34.458932 -2.539625 1.839396 -2.661645 0.202380 0.052900 -1.010710 0.076320 
-21.105790 16.651920 9.777410 1.835358 44.045691 12.847578 -14.960425 11.437108 3.304668 7.919589 -3.444930 -32.514974 6.263687 0.643367 0.455096 -1.388689 2.098399 3.703571 2.345540 2.162590 1.374010 18.720835 -11.072961 2.580692 -0.605732 2.696754 -14.267906 11.905209 -6.610477 20.541300 -1.009825 -4.781820 2.163593 1.539720 0.089000 0.783390 -5.198215 1.172359 -6.872232 13.728148 3.538451 1.777124 -3.591786 3.809936 -3.118646 -4.477696 -6.852524 0.098827 -10.672421 17.870309 11.042301 10.997720 5.219480 -19.420920 -8.710144 12.695073 -1.971706 -11.510354 0.174995 1.986402 12.752069 -34.956232 -2.681039 -3.230811 4.525512 0.556550 0.014040 0.445130 0.904040 16.162154 -5.275911 -4.293724 6.180606 13.090294 0.768989 -13.244237 32.725741 -2.804997 1.844110 -2.637399 0.220260 0.059810 -0.988960 0.071520 
-21.084810 16.647710 9.767940 1.966923 44.709915 13.001147 -14.962985 11.427495 3.297473 7.824081 -3.477740 -32.059453 6.044197 0.615146 -0.088924 -1.424863 2.112193 3.684898 2.390580 2.202180 1.419800 18.721074 -11.070783 2.561622 -0.762038 2.696523 -14.269400 11.769817 -6.549566 20.500020 -1.033042 -4.747693 2.143150 1.569450 0.066050 0.785020 -5.199369 1.175757 -6.832808 13.513448 3.594573 1.377743 -3.380558 3.848210 -3.029377 -4.591720 -6.781500 0.310779 -10.608420 18.356611 10.951027 11.304380 5.629030 -20.116300 -8.460515 13.147892 -1.948527 -11.967540 0.240562 1.901807 15.419042 -32.794136 -3.159792 -3.260479 4.483359 0.585440 -0.010260 0.467880 0.896530 16.137750 -5.732230 -4.564886 6.608307 13.940397 0.703650 -14.841246 28.124568 -3.153372 1.895702 -2.589129 0.222610 0.076200 -0.988960 0.054590 
-21.071620 16.639430 9.755050 2.672361 45.469372 13.501833 -14.981402 11.445412 3.307270 7.096642 -3.662903 -31.749023 5.960526 0.558167 -0.486893 -1.481951 2.117377 3.687558 2.410600 2.212820 1.448690 18.703849 -11.066444 2.516561 -1.362449 2.555727 -14.104818 11.465424 -6.392333 19.909583 -1.025649 -4.685250 2.149747 1.594990 0.068690 0.786540 -5.138388 1.098342 -6.770573 12.607710 3.891860 0.975309 -3.021953 4.036875 -2.673515 -4.524778 -6.520561 0.520799 -10.189596 18.307285 11.071344 10.983540 5.807300 -20.354630 -8.865247 13.111346 -2.203880 -11.449811 -0.602435 2.040069 16.861763 -30.631055 -3.342439 -3.316526 4.423517 0.600980 -0.001420 0.464460 0.886230 16.457053 -5.863294 -4.670562 6.722108 14.553662 0.663735 -15.585113 23.712258 -3.320745 1.930587 -2.550843 0.205810 0.101330 -0.974350 0.029170 
